<svg width="360" height="640" viewBox="0 0 360 640" fill="none" xmlns="http://www.w3.org/2000/svg">
<g clip-path="url(#clip0)">
<rect width="360" height="640" fill="#F9F9F9"/>
<rect x="-16.6354" y="71.2241" width="62.6667" height="56.6667" rx="2" transform="rotate(-90.8318 -16.6354 71.2241)" fill="#BC4242"/>
<rect x="-2.69763" y="55.3533" width="62.6667" height="56.6667" rx="2" transform="rotate(-90.8318 -2.69763 55.3533)" fill="#AE2121"/>
<rect x="11.2401" y="39.4828" width="62.6667" height="56.6667" rx="2" transform="rotate(-90.8318 11.2401 39.4828)" fill="#862929"/>
<rect x="-43" y="581" width="67.3333" height="60.6667" rx="2" fill="#BC4242"/>
<rect x="-26.1666" y="596.167" width="67.3333" height="60.6667" rx="2" fill="#AE2121"/>
<rect x="-9.33337" y="611.333" width="67.3333" height="60.6667" rx="2" fill="#862929"/>
<rect x="296" y="-5" width="64.6667" height="58" rx="2" fill="#BC4242"/>
<rect x="312.167" y="9.5" width="64.6667" height="58" rx="2" fill="#AE2121"/>
<rect x="328.333" y="24" width="64.6667" height="58" rx="2" fill="#862929"/>
<rect x="328" y="611" width="64.6667" height="58" rx="2" fill="#BC4242"/>
<rect x="344.167" y="625.5" width="64.6667" height="58" rx="2" fill="#AE2121"/>
</g>
<defs>
<clipPath id="clip0">
<rect width="360" height="640" fill="white"/>
</clipPath>
</defs>
</svg>
